<svg aria-hidden="true" style="position: absolute; width: 0; height: 0; overflow: hidden;" version="1.1" xmlns="http://www.w3.org/2000/svg" xmlns:xlink="http://www.w3.org/1999/xlink">
<defs>
<symbol id="icon-menu" viewBox="0 0 32 32">
<path d="M5.333 8h21.333v2.667h-21.333v-2.667zM5.333 14.667h21.333v2.667h-21.333v-2.667zM5.333 21.333h21.333v2.667h-21.333v-2.667z"></path>
</symbol>
<symbol id="icon-right-arrow-alt" viewBox="0 0 32 32">
<path d="M15.057 23.057l1.885 1.885 8.943-8.943-8.943-8.943-1.885 1.885 5.724 5.724h-12.781v2.667h12.781l-5.724 5.724z"></path>
</symbol>
<symbol id="icon-left-arrow-alt" viewBox="0 0 32 32">
<path d="M16.943 23.057l-5.724-5.724h12.781v-2.667h-12.781l5.724-5.724-1.885-1.885-8.943 8.943 8.943 8.943 1.885-1.885z"></path>
</symbol>
<symbol id="icon-down-arrow-alt" viewBox="0 0 32 32">
<path d="M24.943 16.943l-1.885-1.885-5.724 5.724v-12.781h-2.667v12.781l-5.724-5.724-1.885 1.885 8.943 8.943 8.943-8.943z"></path>
</symbol>
<symbol id="icon-up-arrow-alt" viewBox="0 0 32 32">
<path d="M14.667 11.219v12.781h2.667v-12.781l5.724 5.724 1.885-1.885-8.943-8.943-8.943 8.943 1.885 1.885 5.724-5.724z"></path>
</symbol>
<symbol id="icon-chevron-right" viewBox="0 0 32 32">
<path d="M12.943 22.599l7.609-7.609-7.609-7.609-1.885 1.885 5.724 5.724-5.724 5.724 1.885 1.885z"></path>
</symbol>
<symbol id="icon-chevron-left" viewBox="0 0 32 32">
<path d="M17.724 8.391l-7.609 7.609 7.609 7.609 1.885-1.885-5.724-5.724 5.724-5.724-1.885-1.885z"></path>
</symbol>
<symbol id="icon-chevron-down" viewBox="0 0 32 32">
<path d="M21.724 11.057l-5.724 5.724-5.724-5.724-1.885 1.885 7.609 7.609 7.609-7.609-1.885-1.885z"></path>
</symbol>
<symbol id="icon-chevron-up" viewBox="0 0 32 32">
<path d="M8.391 19.057l1.885 1.885 5.724-5.724 5.724 5.724 1.885-1.885-7.609-7.609-7.609 7.609z"></path>
</symbol>
<symbol id="icon-arrow-back" viewBox="0 0 32 32">
<path d="M28 14.667h-19.448l7.057-7.057-1.885-1.885-10.276 10.276 10.276 10.276 1.885-1.885-7.057-7.057h19.448v-2.667z"></path>
</symbol>
<symbol id="icon-star" viewBox="0 0 32 32">
<path d="M8.688 19.097l-1.987 8.603c-0.062 0.261-0.043 0.533 0.053 0.783s0.265 0.465 0.485 0.617c0.22 0.152 0.481 0.235 0.749 0.236s0.53-0.078 0.752-0.227l7.26-4.84 7.26 4.84c0.227 0.151 0.495 0.228 0.768 0.222s0.537-0.095 0.757-0.256c0.22-0.161 0.386-0.385 0.475-0.642s0.097-0.536 0.023-0.799l-2.439-8.533 6.048-5.443c0.194-0.174 0.332-0.402 0.398-0.654s0.056-0.518-0.027-0.765-0.238-0.464-0.444-0.624c-0.206-0.16-0.454-0.256-0.714-0.277l-7.601-0.605-3.289-7.281c-0.105-0.234-0.275-0.434-0.491-0.573s-0.467-0.214-0.724-0.214c-0.257 0-0.508 0.074-0.724 0.214s-0.386 0.339-0.491 0.573l-3.289 7.281-7.601 0.604c-0.255 0.020-0.5 0.114-0.703 0.269s-0.358 0.366-0.445 0.607c-0.087 0.241-0.103 0.502-0.046 0.752s0.185 0.478 0.369 0.656l5.619 5.476zM12.492 13.329c0.238-0.019 0.467-0.101 0.662-0.239s0.35-0.325 0.448-0.543l2.399-5.308 2.399 5.308c0.098 0.218 0.252 0.405 0.448 0.543s0.424 0.22 0.662 0.239l5.296 0.42-4.361 3.925c-0.379 0.341-0.529 0.867-0.391 1.357l1.671 5.847-4.981-3.321c-0.219-0.147-0.476-0.225-0.739-0.225s-0.521 0.078-0.739 0.225l-5.205 3.471 1.4-6.061c0.051-0.223 0.044-0.455-0.020-0.675s-0.184-0.419-0.348-0.579l-4.051-3.949 5.453-0.435z"></path>
</symbol>
<symbol id="icon-x" viewBox="0 0 32 32">
<path fill="black" d="M21.589 8.459l-5.657 5.656-5.656-5.656-1.885 1.885 5.656 5.656-5.656 5.656 1.885 1.885 5.656-5.656 5.657 5.656 1.885-1.885-5.656-5.656 5.656-5.656-1.885-1.885z"></path>
</symbol>
<symbol id="icon-plus" viewBox="0 0 32 32">
<path d="M25.333 14.667h-8v-8h-2.667v8h-8v2.667h8v8h2.667v-8h8v-2.667z"></path>
</symbol>
<symbol id="icon-minus" viewBox="0 0 32 32">
<path d="M6.667 14.667h18.667v2.667h-18.667v-2.667z"></path>
</symbol>
<symbol id="icon-youtube" viewBox="0 0 32 32">
<path d="M28.791 9.604c-0.152-0.563-0.449-1.077-0.861-1.49s-0.925-0.711-1.489-0.864c-2.088-0.573-10.441-0.583-10.441-0.583s-8.352-0.009-10.441 0.539c-0.563 0.16-1.075 0.462-1.487 0.878s-0.711 0.929-0.867 1.493c-0.551 2.088-0.556 6.419-0.556 6.419s-0.005 4.352 0.541 6.419c0.307 1.143 1.207 2.045 2.351 2.353 2.109 0.573 10.44 0.583 10.44 0.583s8.353 0.009 10.441-0.537c0.563-0.153 1.077-0.45 1.49-0.862s0.712-0.925 0.866-1.488c0.552-2.087 0.556-6.416 0.556-6.416s0.027-4.353-0.543-6.441zM13.328 20.007l0.007-8 6.943 4.007-6.949 3.993z"></path>
</symbol>
<symbol id="icon-instagram" viewBox="0 0 32 32">
<path d="M15.998 6.161c3.206 0 3.585 0.014 4.846 0.071 1.172 0.052 1.804 0.248 2.226 0.412 0.558 0.216 0.961 0.478 1.378 0.895 0.422 0.422 0.679 0.82 0.9 1.378 0.164 0.422 0.361 1.059 0.412 2.226 0.056 1.266 0.071 1.645 0.071 4.847s-0.014 3.585-0.071 4.847c-0.052 1.172-0.248 1.804-0.412 2.227-0.216 0.558-0.478 0.961-0.895 1.377-0.422 0.422-0.82 0.679-1.378 0.9-0.422 0.164-1.060 0.361-2.226 0.412-1.266 0.056-1.645 0.071-4.847 0.071s-3.585-0.014-4.847-0.071c-1.172-0.052-1.804-0.248-2.226-0.412-0.558-0.216-0.961-0.478-1.378-0.895-0.422-0.422-0.679-0.82-0.9-1.378-0.164-0.422-0.361-1.060-0.412-2.226-0.056-1.266-0.071-1.645-0.071-4.847s0.014-3.585 0.071-4.847c0.052-1.172 0.248-1.804 0.412-2.226 0.216-0.558 0.478-0.961 0.895-1.378 0.422-0.422 0.82-0.679 1.378-0.9 0.422-0.164 1.059-0.361 2.226-0.412 1.261-0.056 1.641-0.071 4.847-0.071h0.001zM15.998 4.001c-3.258 0-3.665 0.014-4.945 0.071-1.275 0.056-2.151 0.262-2.91 0.558-0.792 0.309-1.462 0.717-2.127 1.387-0.67 0.666-1.078 1.336-1.387 2.123-0.295 0.764-0.502 1.636-0.558 2.91-0.056 1.285-0.071 1.692-0.071 4.949s0.014 3.665 0.071 4.945c0.056 1.275 0.262 2.151 0.558 2.91 0.31 0.792 0.717 1.462 1.387 2.127 0.665 0.665 1.336 1.078 2.123 1.383 0.764 0.295 1.636 0.502 2.91 0.558 1.279 0.056 1.687 0.071 4.945 0.071s3.666-0.014 4.945-0.071c1.275-0.056 2.151-0.262 2.91-0.558 0.787-0.305 1.458-0.717 2.123-1.383s1.078-1.336 1.383-2.123c0.295-0.764 0.502-1.635 0.558-2.91 0.056-1.279 0.071-1.687 0.071-4.945s-0.014-3.665-0.071-4.945c-0.056-1.275-0.262-2.151-0.558-2.91-0.295-0.797-0.703-1.467-1.373-2.133-0.665-0.665-1.336-1.078-2.123-1.383-0.764-0.295-1.635-0.502-2.91-0.558-1.284-0.061-1.692-0.075-4.949-0.075l-0.001 0.001z"></path>
<path d="M15.998 9.836c-3.402 0-6.163 2.76-6.163 6.163s2.76 6.163 6.163 6.163c3.403 0 6.163-2.76 6.163-6.163s-2.76-6.163-6.163-6.163zM15.998 19.997c-2.208 0-3.998-1.79-3.998-3.998s1.79-3.998 3.998-3.998c2.208 0 3.998 1.79 3.998 3.998s-1.79 3.998-3.998 3.998z"></path>
<path d="M23.843 9.592c0 0.795-0.644 1.439-1.439 1.439s-1.439-0.644-1.439-1.439 0.644-1.439 1.439-1.439c0.795 0 1.439 0.644 1.439 1.439z"></path>
</symbol>
<symbol id="icon-facebook" viewBox="0 0 32 32">
<path d="M29.333 16.405c0-7.409-5.969-13.415-13.333-13.415s-13.333 6.006-13.333 13.415c0 6.696 4.876 12.245 11.25 13.252v-9.374h-3.385v-3.878h3.385v-2.955c0-3.362 1.991-5.219 5.036-5.219 1.459 0 2.985 0.262 2.985 0.262v3.301h-1.681c-1.656 0-2.173 1.034-2.173 2.095v2.516h3.698l-0.591 3.878h-3.107v9.374c6.374-1.006 11.25-6.556 11.25-13.252z"></path>
</symbol>
<symbol id="icon-logo" viewBox="0 0 112 48">
<path d="M12.8423 12.4138C19.4194 11.8001 25.2471 16.6382 25.854 23.2158C26.4609 29.7937 21.617 35.6161 15.0387 36.2163C8.46996 36.8159 2.65741 31.9804 2.05133 25.4121C1.44532 18.844 6.27479 13.0265 12.8423 12.4138ZM15.2272 34.9514C21.0988 34.2463 25.286 28.9129 24.5775 23.042C23.869 17.1709 18.5332 12.987 12.6625 13.6992C6.79707 14.4108 2.61779 19.7407 3.32562 25.6064C4.03353 31.4729 9.3608 35.6551 15.2272 34.9514Z"></path>
<path d="M18.6314 18.0946L20.0072 18.0852C20.0339 22.0559 20.0358 26.0268 20.0131 29.9974L18.5905 30.0153L18.5884 22.5547L18.5819 20.5117C17.7873 22.0197 16.8852 23.4694 16.0257 24.9408C15.4809 25.8734 14.9749 26.9434 14.3008 27.782C14.14 27.8408 13.9655 27.8453 13.798 27.8069C13.7432 27.7941 13.6286 27.7513 13.5869 27.7181C13.2233 27.4279 9.80395 21.4211 9.25789 20.5102C9.39807 21.5904 9.30999 22.769 9.30941 23.8594L9.30526 29.9859L7.85059 29.991C7.89565 26.0268 7.82451 22.0597 7.86254 18.0945L9.44658 18.1028C10.151 19.3622 10.9066 20.5952 11.637 21.8398C12.4133 23.1624 13.1691 24.501 13.9938 25.7941C14.8328 24.262 15.771 22.777 16.6729 21.2803C17.3117 20.2203 17.9156 19.1039 18.6314 18.0946Z"></path>
<path d="M91.4704 20.9242C91.751 20.9053 92.0393 20.8979 92.3205 20.9029C93.3694 20.9216 94.4407 21.4824 95.1585 22.2259C96.0534 23.1524 96.4688 24.4445 96.4388 25.7191C96.4088 27.016 95.9223 28.249 94.968 29.1387C94.1217 29.9268 93.0377 30.3487 91.8782 30.3052C90.5506 30.2554 89.6704 29.6961 88.78 28.7456C88.7455 29.2896 88.7557 29.8399 88.7506 30.3851C88.7564 31.4679 88.7551 32.5507 88.7461 33.6341C88.2412 33.684 87.7324 33.6795 87.2281 33.6201C87.3105 31.9435 87.2377 30.2266 87.2383 28.5456C87.2383 26.045 87.2779 23.5378 87.2217 21.0381L88.7238 21.0323C88.6944 21.5901 88.7014 22.1536 88.6931 22.7124C89.5068 21.6968 90.1856 21.2072 91.4704 20.9242ZM92.1211 28.9636C93.0549 28.7884 93.7785 28.4075 94.3263 27.6015C94.8626 26.7993 95.055 25.8156 94.86 24.8708C94.6925 24.0289 94.194 23.2332 93.4608 22.7731C92.8836 22.4109 92.2591 22.3114 91.5925 22.3303C90.6669 22.5052 89.9165 22.8348 89.3617 23.6417C88.8388 24.4017 88.6138 25.4838 88.7903 26.3876C88.9577 27.2557 89.4723 28.0176 90.2156 28.4957C90.8082 28.8683 91.4339 28.9757 92.1211 28.9636Z"></path>
<path d="M63.4415 17.1565C63.6863 17.4081 63.7624 18.0719 63.9081 18.4275C62.3318 19.089 60.0467 18.953 58.7792 20.1638C58.0211 20.8881 57.8402 21.8896 57.8243 22.8877C58.5024 22.0501 59.2458 21.3713 60.358 21.1854C61.4817 20.9975 62.6725 21.2149 63.5942 21.9008C64.5843 22.6379 65.1353 23.7063 65.3009 24.9166C65.4907 26.3075 65.1443 27.6191 64.291 28.73C63.6729 29.4159 62.9538 29.9227 62.048 30.1445C60.9013 30.4258 59.5923 30.28 58.5817 29.653C57.4293 28.9371 56.7658 27.7559 56.4781 26.4564C56.0486 24.5145 56.133 21.6124 57.2522 19.8888C58.2391 18.3682 59.7297 18.0672 61.3858 17.6733C62.0736 17.5097 62.7518 17.3084 63.4415 17.1565ZM60.8208 28.9716C61.7968 28.8272 62.523 28.5932 63.1295 27.7546C63.7246 26.9326 63.917 25.8945 63.7323 24.9064C63.5834 24.1089 63.1634 23.3795 62.4789 22.9283C62.0595 22.651 61.5731 22.4922 61.0707 22.4684C60.1209 22.5746 59.3398 22.7713 58.7076 23.5547C58.1145 24.2902 57.8607 25.2835 57.9917 26.2154C58.1113 27.0655 58.576 27.8837 59.274 28.3906C59.7463 28.7332 60.2532 28.8834 60.8208 28.9716Z"></path>
<path d="M42.0841 17.7615C42.639 17.7059 43.2163 17.7325 43.7744 17.7286C43.6991 21.8143 43.789 25.9119 43.7655 29.9995L42.2942 29.9848L42.2965 22.7572C42.2924 21.9291 42.2752 21.0993 42.3259 20.2724C40.9699 22.7768 39.7465 25.3909 38.2614 27.8192L37.3053 27.8141C35.8425 25.4158 34.6251 22.8316 33.2724 20.3672C33.3253 21.4973 33.2895 22.6449 33.2903 23.7768L33.2935 30.0001C32.803 29.9873 32.3144 30.0193 31.8233 29.9963L31.824 22.5514C31.825 20.9511 31.7937 19.3407 31.8814 17.7426L33.5184 17.7434C33.9837 18.5413 34.3792 19.3962 34.8019 20.2181C35.7827 22.1246 36.7535 24.0518 37.8116 25.9163C39.3666 23.2797 40.5976 20.4396 42.0841 17.7615Z"></path>
<path d="M49.6516 20.927C49.8761 20.9149 50.1008 20.9064 50.3257 20.9015C51.5036 20.8821 52.6774 21.2035 53.5266 22.0571C54.6626 23.199 54.7757 24.638 54.7759 26.1586C52.3239 26.1899 49.8685 26.1567 47.416 26.1676C47.4916 26.5722 47.5677 26.9595 47.7603 27.329C48.1436 28.0679 48.8088 28.6208 49.6053 28.8624C50.5587 29.1513 51.5176 28.9819 52.3752 28.5089C52.6629 28.3133 52.926 28.0845 53.1938 27.8633C53.5787 28.0832 53.9682 28.2667 54.375 28.4424C53.7699 29.2587 52.9899 29.8538 52.0026 30.1241C50.7386 30.4699 49.1981 30.3344 48.0595 29.6646C47.0611 29.0759 46.3448 28.1069 46.0752 26.98C45.7388 25.6249 45.9267 24.1427 46.6619 22.9508C47.3707 21.8019 48.3652 21.2342 49.6516 20.927ZM47.4317 25.0132C48.6462 25.0036 49.8608 24.9997 51.0754 25.0029L53.3456 25.0042C53.1243 24.0725 52.9024 23.2089 52.0354 22.6634C51.4011 22.2643 50.6319 22.2035 49.9018 22.2644C49.1134 22.4464 48.4489 22.8053 47.9989 23.5001C47.6943 23.9707 47.5592 24.4763 47.4317 25.0132Z"></path>
<path d="M80.1542 20.9245C80.3747 20.9135 80.5946 20.9061 80.8151 20.9024C81.99 20.8897 83.1642 21.2383 84.0028 22.0955C85.106 23.2238 85.2077 24.6638 85.2025 26.1531C82.7608 26.1901 80.3134 26.1607 77.8704 26.1665C77.903 26.612 77.981 26.9955 78.1893 27.3963C78.5741 28.1384 79.2127 28.6293 80.0098 28.8626C81.0759 29.1758 82.0462 28.9444 82.9884 28.4216C83.2185 28.263 83.423 28.0694 83.632 27.884C84.0194 28.0924 84.4119 28.2611 84.8197 28.4235C84.1811 29.2627 83.3866 29.8712 82.3549 30.1327C81.0721 30.458 79.5994 30.3334 78.4546 29.6424C77.4383 29.0288 76.7416 28.0176 76.4744 26.8658C76.1695 25.5503 76.3824 24.0373 77.1174 22.8969C77.8525 21.7567 78.8579 21.2049 80.1542 20.9245ZM77.857 25.0102C79.0196 25.007 80.1836 24.991 81.3463 25.0032L83.8104 25.0019C83.5547 24.0439 83.2869 23.1106 82.3601 22.5836C81.7861 22.2569 81.0868 22.2013 80.4387 22.2668C79.6697 22.394 79.0196 22.6833 78.5422 23.3262C78.1638 23.8353 78.0027 24.4042 77.857 25.0102Z"></path>
<path d="M105.514 21.0534C107.001 20.9837 108.51 21.0342 110 21.039C109.924 24.017 109.992 27.0152 109.991 29.9957L108.458 29.9791L108.457 26.9193C107.725 26.9148 106.761 26.7716 106.063 26.9378C105.845 26.9896 105.806 27.0995 105.684 27.2689C105.167 28.1861 104.592 29.0714 104.073 29.9893C103.494 30.0021 102.914 30.004 102.335 29.9938C102.902 28.9295 103.672 27.5751 104.422 26.6534C104.332 26.6099 104.244 26.5639 104.157 26.5166C103.503 26.1554 103.002 25.5744 102.811 24.8457C102.611 24.0861 102.72 23.2191 103.126 22.5447C103.674 21.6347 104.532 21.2849 105.514 21.0534ZM107.085 25.6351C107.537 25.6313 107.999 25.6454 108.45 25.6128C108.444 24.5536 108.447 23.4945 108.458 22.4353C107.56 22.4321 106.649 22.408 105.751 22.4572C105.185 22.6346 104.743 22.826 104.437 23.3718C104.235 23.7345 104.18 24.2132 104.317 24.6073C104.449 24.9889 104.756 25.2567 105.116 25.4197C105.725 25.6946 106.433 25.6409 107.085 25.6351Z"></path>
<path d="M68.4129 21.1353C70.3535 21.0653 72.3107 21.1107 74.2532 21.1071L74.2442 29.9943C73.7603 29.9872 73.2746 29.9668 72.7945 30.0326L72.7875 22.5045L71.9642 22.5377C71.2292 22.5015 70.4781 22.5499 69.7418 22.5671C69.7213 24.3585 69.7143 28.0722 68.4595 29.3979C67.8338 30.0588 67.1268 30.1266 66.2722 30.1336C66.2658 29.6663 66.2409 29.2049 66.207 28.7389C66.4301 28.7184 66.6666 28.7031 66.8839 28.6481C68.2345 28.3074 68.2582 23.8445 68.2921 22.7193C68.3055 22.2808 68.2083 21.4923 68.4129 21.1353Z"></path>
<path d="M99.8876 21.07L100.086 21.0583C100.11 21.0906 100.144 21.1175 100.159 21.1552C100.225 21.33 100.157 29.0934 100.157 29.9908L98.856 29.9998L98.7601 29.9806C98.5517 29.6041 98.7607 22.2061 98.6955 21.0878C99.0931 21.0927 99.4907 21.0793 99.8876 21.07Z"></path>
<path d="M98.6682 17.7183L100.165 17.7139C100.149 18.2451 100.161 18.7768 100.169 19.3081L98.6279 19.3197C98.6503 18.7862 98.6637 18.2523 98.6682 17.7183Z"></path>
</symbol>
</defs>
</svg>
