<svg width="24" height="24" viewBox="0 0 24 24" fill="none" xmlns="http://www.w3.org/2000/svg">
<path d="M11.203 3.33966C16.1358 2.8794 20.5066 6.50793 20.9618 11.4412C21.417 16.3746 17.7841 20.7414 12.8503 21.1915C7.92376 21.6412 3.56435 18.0146 3.10979 13.0884C2.65528 8.16231 6.27738 3.79921 11.203 3.33966ZM12.9917 20.2428C17.3954 19.714 20.5358 15.714 20.0044 11.3108C19.4731 6.90745 15.4712 3.76954 11.0682 4.30372C6.66909 4.83738 3.53463 8.83485 4.06551 13.2341C4.59644 17.634 8.59189 20.7706 12.9917 20.2428Z" fill="#080C09" stroke="black" stroke-width="0.5"/>
<path d="M15.5446 7.60031L16.5764 7.59326C16.5965 10.5713 16.5979 13.5494 16.5809 16.5274L15.5139 16.5408L15.5124 10.9454L15.5075 9.41313C14.9115 10.5441 14.2349 11.6314 13.5903 12.7349C13.1817 13.4344 12.8023 14.2369 12.2966 14.8658C12.176 14.91 12.0452 14.9133 11.9195 14.8845C11.8785 14.875 11.7925 14.8428 11.7612 14.8179C11.4885 14.6003 8.92401 10.0952 8.51446 9.41203C8.61959 10.2222 8.55353 11.1061 8.5531 11.9239L8.54999 16.5188L7.45898 16.5226C7.49278 13.5494 7.43943 10.5741 7.46795 7.60026L8.65598 7.60645C9.18427 8.55099 9.75096 9.47579 10.2988 10.4092C10.881 11.4012 11.4479 12.4051 12.0664 13.3749C12.6956 12.2258 13.3993 11.1121 14.0757 9.9896C14.5548 9.19458 15.0077 8.35732 15.5446 7.60031Z" fill="#080C09" stroke="black" stroke-width="0.5"/>
</svg>
